# xmcd
#
# Track frame offsets: 
#        150
#        10773
#        22747
#        33960
#        45963
#        56702
#        68978
#        81384
#        91610
#        101231
#        114726
#        127980
#        141636
#        153470
#        165287
#        177928
#        191515
#        203749
#        217392
#        230610
#        243049
#        260059
#        271513
#        283471
#        295375
#
# Disc length: 4105 seconds
#
# Revision: 2
# Processed by: cddbd v1.5.2PL0 Copyright (c) Steve Scherf et al.
# Submitted via: ExactAudioCopyFreeDBPlugin 1.0
#
DISCID=69100719
DTITLE=Lightnin' Hopkins - Dirty House Blues Disc 1
DYEAR=2010
DGENRE=Country Blues
TTITLE0=Nothin' But The Blues
TTITLE1=Remember Me
TTITLE2=I Love You Baby
TTITLE3=Shine On Moon
TTITLE4=Lightnin's Special
TTITLE5=Sittin' Here Thinkin'
TTITLE6=My Baby's Gone
TTITLE7=Had A Gal Called Sal
TTITLE8=They Wonder Who I Am
TTITLE9=Everybody's Down On Me
TTITLE10=Down To The River
TTITLE11=Long Way From Texas
TTITLE12=Tap Dance Boogie
TTITLE13=I'm Begging You
TTITLE14=Frieght Train Blues
TTITLE15=Dirty House Blues
TTITLE16=Coffee Blues
TTITLE17=Unkind Blues
TTITLE18=Another Fool In Town
TTITLE19=Fast Life Woman
TTITLE20=Bottle Up And Go
TTITLE21=Let Me Play With Your Poodle
TTITLE22=Nightmare Blues
TTITLE23=West Coast Blues
TTITLE24=Life I Used To Live
EXTD=
EXTT0=
EXTT1=
EXTT2=
EXTT3=
EXTT4=
EXTT5=
EXTT6=
EXTT7=
EXTT8=
EXTT9=
EXTT10=
EXTT11=
EXTT12=
EXTT13=
EXTT14=
EXTT15=
EXTT16=
EXTT17=
EXTT18=
EXTT19=
EXTT20=
EXTT21=
EXTT22=
EXTT23=
EXTT24=
PLAYORDER=
